<svg preserveAspectRatio="none" width="100%" height="100%" overflow="visible" style="display: block;" viewBox="0 0 24.069 24.069" fill="none" xmlns="http://www.w3.org/2000/svg">
<g id="Logo">
<circle id="Ellipse 13" cx="12.0345" cy="12.0345" r="12.0345" fill="var(--fill-0, #FDA32F)"/>
<path id="image 9 (Traced)" fill-rule="evenodd" clip-rule="evenodd" d="M11.5341 4.52859C11.5146 4.60037 11.3964 5.05795 11.2713 5.54552C11.0908 6.24934 11.0317 6.43197 10.9841 6.43197C10.9512 6.43197 10.3691 6.29684 9.6905 6.13169C9.01192 5.96658 8.45262 5.83492 8.44761 5.83911C8.4317 5.8525 8.10466 7.15822 8.11519 7.16635C8.12071 7.17065 8.24954 7.20206 8.40147 7.23619C9.1508 7.40456 9.43704 7.52849 9.54977 7.73332C9.67499 7.96086 9.67941 7.93865 8.91458 10.9247C8.4731 12.6481 8.15349 13.8279 8.11346 13.8818C8.07681 13.931 7.98411 14.0016 7.90744 14.0386L7.768 14.106L7.28369 13.993C7.01734 13.9308 6.76436 13.871 6.7216 13.8601C6.66669 13.846 6.63803 13.8594 6.62426 13.9057C6.61354 13.9418 6.47256 14.2638 6.31099 14.6212L6.01724 15.2711L7.29187 15.5825C7.99292 15.7538 8.57718 15.9003 8.59022 15.9082C8.60329 15.916 8.49383 16.3888 8.34703 16.9589L8.08009 17.9953L8.71794 18.1488C9.06878 18.2332 9.36238 18.2948 9.37038 18.2857C9.37837 18.2767 9.49736 17.826 9.63481 17.2843C9.7723 16.7426 9.8949 16.2888 9.90731 16.2759C9.93004 16.2522 10.8586 16.4742 10.8983 16.5129C10.91 16.5242 10.8033 16.9852 10.6611 17.5373C10.5189 18.0894 10.4122 18.5468 10.4241 18.5538C10.4619 18.5762 11.6863 18.8655 11.6932 18.8537C11.6969 18.8474 11.8136 18.391 11.9526 17.8395C12.0916 17.2879 12.2107 16.8269 12.2173 16.815C12.224 16.8031 12.4246 16.8256 12.6633 16.8649C12.9955 16.9196 13.2743 16.9368 13.8522 16.9382C14.519 16.9398 14.6417 16.9308 14.9019 16.8615C15.411 16.7257 15.7094 16.5596 16.0659 16.2132C16.3383 15.9486 16.4093 15.8526 16.5719 15.5293C16.8196 15.0367 16.9446 14.6042 16.9704 14.1504C17.0164 13.341 16.7007 12.7612 15.9468 12.2708C15.6928 12.1056 15.6305 12.05 15.6819 12.0342C16.333 11.8334 16.7564 11.4928 17.0014 10.9723C17.3371 10.259 17.3316 9.42721 16.9872 8.84957C16.6662 8.31111 15.9857 7.83149 15.0308 7.47054C14.8586 7.40546 14.7039 7.34045 14.687 7.32609C14.6702 7.31173 14.7642 6.87498 14.8959 6.35558C15.0277 5.83617 15.141 5.3793 15.1476 5.34029C15.1584 5.27661 15.0957 5.25376 14.5358 5.11723C14.1927 5.03356 13.9051 4.97178 13.8968 4.97991C13.8884 4.988 13.7689 5.43195 13.6313 5.96636C13.4936 6.50078 13.3751 6.94289 13.368 6.9488C13.3507 6.96313 12.3896 6.7416 12.3656 6.71771C12.3552 6.7074 12.4607 6.25647 12.6 5.71561C12.7692 5.05903 12.8402 4.72436 12.8139 4.70853C12.7813 4.68894 12.2227 4.54847 11.6889 4.42562C11.5746 4.39933 11.568 4.40373 11.5341 4.52859ZM12.4646 8.31444C14.1396 8.68732 14.8541 9.25479 14.6986 10.0887C14.6442 10.3807 14.5592 10.5381 14.3587 10.7177C13.9155 11.1151 13.1596 11.1494 11.8291 10.8326C11.5416 10.7641 11.3508 10.7017 11.3593 10.6788C11.3672 10.6577 11.5113 10.0964 11.6794 9.43158C11.8475 8.76676 12.0003 8.22278 12.019 8.22278C12.0376 8.22278 12.2381 8.26401 12.4646 8.31444ZM11.526 12.0886C13.1153 12.4467 13.945 12.8736 14.2327 13.4815C14.3509 13.7313 14.3429 14.1528 14.2148 14.4221C14.04 14.7896 13.7145 15.0174 13.2406 15.1038C12.9229 15.1618 12.0358 15.1224 11.5688 15.0296C11.2045 14.9572 10.352 14.7519 10.331 14.7315C10.3158 14.7167 11.0236 11.9835 11.0427 11.9835C11.0521 11.9835 11.2696 12.0308 11.526 12.0886Z" fill="var(--fill-0, white)"/>
</g>
</svg>
