<svg preserveAspectRatio="none" width="100%" height="100%" overflow="visible" style="display: block;" viewBox="0 0 35 35" fill="none" xmlns="http://www.w3.org/2000/svg">
<g id="XTVCSOL 1" clip-path="url(#clip0_0_88)">
<path id="Vector" d="M0 17.5C0 12.8587 1.84374 8.40752 5.12563 5.12563C8.40752 1.84374 12.8587 0 17.5 0C22.1413 0 26.5925 1.84374 29.8744 5.12563C33.1563 8.40752 35 12.8587 35 17.5C35 22.1413 33.1563 26.5925 29.8744 29.8744C26.5925 33.1563 22.1413 35 17.5 35C12.8587 35 8.40752 33.1563 5.12563 29.8744C1.84374 26.5925 0 22.1413 0 17.5H0Z" fill="url(#paint0_linear_0_88)"/>
<path id="Vector_2" d="M24.2661 13.812C24.2098 13.8716 24.1429 13.9188 24.0692 13.9511C23.9955 13.9833 23.9165 14 23.8367 14H8.61039C8.49006 13.9993 8.37259 13.9614 8.27256 13.891C8.17254 13.8206 8.09439 13.7208 8.04782 13.604C8.00125 13.4872 7.98833 13.3586 8.01066 13.2341C8.03299 13.1097 8.08958 12.9949 8.1734 12.904L10.6718 10.194C10.7286 10.1324 10.7965 10.0835 10.8716 10.0501C10.9467 10.0168 11.0273 9.99976 11.1088 10H26.3921C26.9317 10 27.2034 10.694 26.8215 11.1L24.2642 13.812H24.2661Z" fill="url(#paint1_linear_0_88)"/>
<path id="Vector_3" d="M24.2661 24.812C24.2098 24.8716 24.1429 24.9188 24.0692 24.9511C23.9955 24.9833 23.9165 25 23.8367 25H8.61039C8.49006 24.9993 8.37259 24.9614 8.27256 24.891C8.17254 24.8206 8.09439 24.7208 8.04782 24.604C8.00125 24.4872 7.98833 24.3586 8.01066 24.2341C8.03299 24.1097 8.08958 23.9949 8.1734 23.904L10.6718 21.194C10.7286 21.1324 10.7965 21.0835 10.8716 21.0501C10.9467 21.0168 11.0273 20.9998 11.1088 21H26.3921C26.9317 21 27.2034 21.694 26.8215 22.1L24.2661 24.812Z" fill="url(#paint2_linear_0_88)"/>
<path id="Vector_4" d="M24.2672 16.188C24.2109 16.1284 24.144 16.0812 24.0703 16.0489C23.9966 16.0167 23.9176 16 23.8378 16H8.61043C8.4901 16.0007 8.37261 16.0386 8.27258 16.109C8.17255 16.1794 8.09439 16.2792 8.04782 16.396C8.00125 16.5128 7.98833 16.6414 8.01066 16.7659C8.03299 16.8903 8.08958 17.0051 8.17341 17.096L10.672 19.806C10.786 19.93 10.9437 20 11.1091 20H26.3934C26.5139 19.9985 26.6312 19.9598 26.7309 19.8886C26.8306 19.8174 26.9082 19.7169 26.9539 19.5996C26.9997 19.4823 27.0117 19.3534 26.9884 19.229C26.9651 19.1046 26.9075 18.9902 26.8228 18.9L24.2653 16.188H24.2672Z" fill="url(#paint3_linear_0_88)"/>
</g>
<defs>
<linearGradient id="paint0_linear_0_88" x1="6.51194" y1="6.07056" x2="42.5911" y2="47.5106" gradientUnits="userSpaceOnUse">
<stop stop-color="#1A1E21"/>
<stop offset="1" stop-color="#06060A"/>
</linearGradient>
<linearGradient id="paint1_linear_0_88" x1="8.0005" y1="13.182" x2="27.0431" y2="10.2743" gradientUnits="userSpaceOnUse">
<stop stop-color="#599DB0"/>
<stop offset="1" stop-color="#47F8C3"/>
</linearGradient>
<linearGradient id="paint2_linear_0_88" x1="8.0005" y1="24.358" x2="27.0464" y2="21.9244" gradientUnits="userSpaceOnUse">
<stop stop-color="#C44FE2"/>
<stop offset="1" stop-color="#73B0D0"/>
</linearGradient>
<linearGradient id="paint3_linear_0_88" x1="9.09115" y1="18" x2="26.2623" y2="18" gradientUnits="userSpaceOnUse">
<stop stop-color="#778CBF"/>
<stop offset="1" stop-color="#5DCDC9"/>
</linearGradient>
<clipPath id="clip0_0_88">
<rect width="35" height="35" fill="white"/>
</clipPath>
</defs>
</svg>
